<?xml version="1.0" encoding="utf-8"?>
<!-- Generator: Adobe Illustrator 24.0.1, SVG Export Plug-In . SVG Version: 6.00 Build 0)  -->
<svg version="1.1" id="Layer_1" xmlns="http://www.w3.org/2000/svg" xmlns:xlink="http://www.w3.org/1999/xlink" x="0px" y="0px"
	 viewBox="0 0 1312.8 214.3" style="enable-background:new 0 0 1312.8 214.3;" xml:space="preserve">
<style type="text/css">
	.st0{fill:#91E543;stroke:#FFFFFF;stroke-width:4.8;stroke-miterlimit:48;stroke-opacity:1.000000e-04;}
	.st1{fill:#91E543;}
</style>
<g>
	<g id="symbol">
		<g>
			<g id="construct">
			</g>
		</g>
		<path class="st0" d="M0,78.3v78.3L156.5,0H78.3L0,78.3z"/>
		<path class="st0" d="M78.3,96.9h78.3v19.6H78.3V96.9z"/>
		<path class="st0" d="M78.3,162.2h78.3v19.6H78.3V162.2z"/>
		<path class="st0" d="M78.3,129.5h78.3v19.6H78.3V129.5z"/>
		<path class="st0" d="M78.3,194.8h78.3v19.6H78.3V194.8z"/>
	</g>
	<g id="text">
		<path class="st1" d="M233.3,35.8V4c0-2.7,1.2-4,3.7-4h78.4c2.4,0,3.6,1.2,3.6,3.6v207c0,2.5-1.2,3.7-3.6,3.7h-35.5
			c-2.5,0-3.7-1.2-3.7-3.7V39.8L237,39.5C234.5,39.1,233.3,37.9,233.3,35.8L233.3,35.8z M376.9,0h142.7c2.4,0,3.6,1.2,3.6,3.6v207
			c0,2.5-1.2,3.7-3.6,3.7H376.9c-2.5,0-3.7-1.2-3.7-3.7V3.6C373.2,1.2,374.5,0,376.9,0L376.9,0z M481.9,174.5v-55.1h-67.3v55.1
			H481.9z M481.9,79.6V39.8h-67.3v39.8L481.9,79.6z M581.2,0h142.7c2.4,0,3.6,1.2,3.6,3.6v207c0,2.5-1.2,3.7-3.6,3.7H581.2
			c-2.5,0-3.7-1.2-3.7-3.7V3.6C577.5,1.2,578.7,0,581.2,0L581.2,0z M686.2,174.5v-55.1h-67.3v55.1H686.2z M686.2,79.6V39.8h-67.3
			v39.8L686.2,79.6z M785.4,0h142.7c2.4,0,3.6,1.2,3.6,3.6v207c0,2.5-1.2,3.7-3.6,3.7H785.4c-2.5,0-3.7-1.2-3.7-3.7V3.6
			C781.8,1.2,783,0,785.4,0L785.4,0z M890.5,174.5v-55.1h-67.4v55.1H890.5z M890.5,79.6V39.8h-67.4v39.8L890.5,79.6z M1077.9,39.8
			h-88.2c-2.5,0-3.7-1.2-3.7-3.7V3.6c0-2.4,1.2-3.6,3.7-3.6h127.4c2.5,0,3.7,1.2,3.7,3.6v87.6c0,2.5-0.6,4.3-1.9,5.6l-77.8,77.8h79
			c2.5,0,3.7,1.2,3.7,3.7v32.4c0,2.5-1.2,3.7-3.7,3.7H986.7c-2.5,0-3.7-1.2-3.7-3.7v-30.9c0-2.7,0.8-4.8,2.5-6.4l92.4-92.4
			L1077.9,39.8z M1266.8,39.8h-88.2c-2.4,0-3.6-1.2-3.6-3.7V3.6c0-2.4,1.2-3.6,3.6-3.6H1306c2.5,0,3.7,1.2,3.7,3.6v87.6
			c0,2.5-0.6,4.3-1.8,5.6l-77.8,77.8h79c2.4,0,3.6,1.2,3.6,3.7v32.4c0,2.5-1.2,3.7-3.6,3.7h-133.5c-2.5,0-3.7-1.2-3.7-3.7v-30.9
			c0-2.7,0.8-4.8,2.5-6.4l92.5-92.4L1266.8,39.8z"/>
	</g>
</g>
</svg>
